PathFileType	4	(X/Y/Z)	/Users/itak/Documents/Research/Walk-IL/dataset/trc/00022_00004.trc
DataRate	CameraRate	NumFrames	NumMarkers	Units	OrigDataRate	OrigDataStartFrame	OrigNumFrames
100.000000	100.000000	4	53	mm	100.000000	211	846
Frame#	Time	RPSI			LPSI			L3			STRN			T10			C7			CLAV			RBAK			LBAK			LSHO			LUPA			LAEL			LAOL			LWTS			LWPS			LFRA			LIFD			LHPS			LHTS			RSHO			RUPA			RAEL			RAOL			RWTS			RWPS			RFRA			RIFD			RHTS			RHPS			RBHD			LFHD			RFHD			LBHD			LHIP			RHIP			RASI			LASI			LKNE			LTHI			LANK			LTIP			LTOE			LMT1			LMT5			LHEE			RKNE			RTHI			RANK			RTIP			RTOE			RMT1			RMT5			RHEE			
		X1	Y1	Z1	X2	Y2	Z2	X3	Y3	Z3	X4	Y4	Z4	X5	Y5	Z5	X6	Y6	Z6	X7	Y7	Z7	X8	Y8	Z8	X9	Y9	Z9	X10	Y10	Z10	X11	Y11	Z11	X12	Y12	Z12	X13	Y13	Z13	X14	Y14	Z14	X15	Y15	Z15	X16	Y16	Z16	X17	Y17	Z17	X18	Y18	Z18	X19	Y19	Z19	X20	Y20	Z20	X21	Y21	Z21	X22	Y22	Z22	X23	Y23	Z23	X24	Y24	Z24	X25	Y25	Z25	X26	Y26	Z26	X27	Y27	Z27	X28	Y28	Z28	X29	Y29	Z29	X30	Y30	Z30	X31	Y31	Z31	X32	Y32	Z32	X33	Y33	Z33	X34	Y34	Z34	X35	Y35	Z35	X36	Y36	Z36	X37	Y37	Z37	X38	Y38	Z38	X39	Y39	Z39	X40	Y40	Z40	X41	Y41	Z41	X42	Y42	Z42	X43	Y43	Z43	X44	Y44	Z44	X45	Y45	Z45	X46	Y46	Z46	X47	Y47	Z47	X48	Y48	Z48	X49	Y49	Z49	X50	Y50	Z50	X51	Y51	Z51	X52	Y52	Z52	X53	Y53	Z53	

212	2.11	636.466796875	1065.762817382812	883.1516723632812	540.3565673828125	1053.6669921875	752.5012817382812	578.3410034179688	1124.306274414062	810.7259521484375	768.408203125	1306.069213867188	677.6248779296875	553.6921997070312	1267.715087890625	812.9985961914062	594.049072265625	1532.278564453125	760.36572265625	729.1006469726562	1432.453002929688	689.5679931640625	588.1755981445312	1402.275634765625	865.9290771484375	526.2101440429688	1487.344848632812	691.1187744140625	574.318115234375	1485.658203125	575.7740478515625	502.8896484375	1361.314697265625	534.3414916992188	479.8446044921875	1144.988647460938	526.1846313476562	482.0481262207031	1138.620239257812	631.5235595703125	588.667236328125	895.2379760742188	529.4539184570312	501.895751953125	877.3704833984375	540.9186401367188	488.2227783203125	1028.79150390625	517.0580444335938	627.1218872070312	709.5062255859375	539.8129272460938	533.2615966796875	787.6094360351562	527.075439453125	601.4968872070312	798.9405517578125	510.4729919433594	746.261962890625	1522.83544921875	868.3845825195312	772.3465576171875	1460.770629882812	943.5772705078125	753.9736938476562	1198.05859375	1010.308288574219	703.7320556640625	1162.73486328125	932.208984375	853.6386108398438	929.8643188476562	944.8253173828125	829.2633666992188	921.9994506835938	1033.065795898438	773.577880859375	1122.86669921875	1024.533813476562	875.8934326171875	742.1187133789062	939.91552734375	893.7265625	822.3593139648438	948.833740234375	869.1885375976562	821.871826171875	1019.687255859375	747.1227416992188	1714.799560546875	746.8115234375	733.8722534179688	1674.777465820312	538.5780029296875	817.8930053710938	1683.190063476562	589.201416015625	619.1690673828125	1706.578491210938	677.09228515625	559.370849609375	943.2908325195312	609.0083618164062	788.154541015625	952.282470703125	901.4841918945312	828.67431640625	987.275634765625	782.226806640625	687.9600830078125	993.7345581054688	594.5233764648438	705.0787963867188	509.7322998046875	634.447509765625	639.2992553710938	638.102783203125	612.039794921875	623.4554443359375	36.41459655761719	755.695556640625	635.0559692382812	270.3814697265625	695.4943237304688	843.8521728515625	32.37109375	698.26708984375	801.9608154296875	40.58285903930664	740.1863403320312	719.4873657226562	38.42916488647461	673.2522583007812	593.7201538085938	45.24023818969727	836.274658203125	883.64111328125	525.7539672851562	835.996826171875	839.1898193359375	796.1939697265625	881.5657348632812	610.6902465820312	143.7689971923828	1024.547607421875	833.851318359375	417.0245361328125	883.24365234375	803.7302856445312	48.76218414306641	939.0408325195312	738.7385864257812	68.91989135742188	922.774658203125	747.65966796875	87.60820007324219	1018.068603515625	548.1431274414062	155.8276672363281	993.9032592773438	
213	2.12	645.4054565429688	1065.737915039062	878.4960327148438	546.9690551757812	1053.50390625	749.5516357421875	585.8995361328125	1124.085205078125	807.0255737304688	773.1547241210938	1306.434814453125	671.1622924804688	560.76220703125	1267.379272460938	809.7691040039062	599.778564453125	1532.181396484375	757.19873046875	733.8592529296875	1432.7158203125	684.0289916992188	595.7921142578125	1401.901733398438	862.4802856445312	531.0243530273438	1487.393798828125	688.8109741210938	577.3246459960938	1486.01611328125	572.758056640625	505.2625732421875	1361.71044921875	532.1829833984375	482.2301635742188	1145.329467773438	524.0348510742188	485.9058837890625	1138.859619140625	629.3553466796875	591.747802734375	895.8431396484375	525.548583984375	505.1856079101562	877.70361328125	538.0065307617188	490.7081909179688	1029.10107421875	514.8408203125	630.8345336914062	710.2167358398438	535.3275146484375	536.58642578125	788.08056640625	523.7484741210938	604.6220092773438	799.5899658203125	506.3409729003906	753.661376953125	1522.687255859375	862.8131713867188	780.9690551757812	1460.509155273438	937.4710083007812	764.2195434570312	1197.671630859375	1004.048156738281	712.759033203125	1162.33837890625	926.6387939453125	863.6298828125	929.889892578125	936.6024169921875	840.6421508789062	921.8043823242188	1025.188354492188	784.2683715820312	1122.5107421875	1017.856323242188	886.3182373046875	742.2178344726562	930.986572265625	904.0751953125	822.5066528320312	939.77099609375	880.6510620117188	821.803466796875	1011.001220703125	752.7392578125	1715.105224609375	741.9300537109375	736.7410278320312	1675.21875	533.6436157226562	821.3612060546875	1683.591430664062	583.2490844726562	623.79052734375	1706.824951171875	673.6575317382812	563.3701782226562	943.0569458007812	606.072021484375	797.8986206054688	952.6942749023438	893.9244995117188	835.7559204101562	987.7701416015625	773.8820190429688	691.6600341796875	993.6314697265625	588.6953735351562	706.0734252929688	508.7674255371094	632.4315185546875	641.2593383789062	637.5721435546875	609.8696899414062	623.4773559570312	36.44136047363281	755.752685546875	635.5491333007812	270.1878662109375	694.83447265625	843.8101806640625	32.30841064453125	698.0750122070312	801.9334106445312	40.61011123657227	740.0361328125	719.3866577148438	38.23214721679688	673.125732421875	593.7713623046875	45.42217636108398	836.3622436523438	894.989013671875	527.5718383789062	823.0621948242188	849.532958984375	797.0631103515625	872.1433715820312	639.2061157226562	134.5596618652344	1012.696838378906	849.2730102539062	417.0425415039062	870.0205688476562	832.3405151367188	48.017822265625	918.3781127929688	766.0778198242188	66.0875244140625	904.8944091796875	777.72998046875	83.12909698486328	1000.126892089844	575.2225952148438	144.9488372802734	984.1610717773438	
214	2.13	654.3098754882812	1065.621948242188	873.8098754882812	553.5806884765625	1053.24951171875	746.6090698242188	593.46533203125	1123.7841796875	803.3302612304688	777.8792114257812	1306.671752929688	664.7067260742188	567.88232421875	1266.969482421875	806.5659790039062	605.5394287109375	1531.977783203125	754.0095825195312	738.6089477539062	1432.860107421875	678.4847412109375	603.4725341796875	1401.458618164062	859.0043334960938	535.9496459960938	1487.327026367188	686.481689453125	580.3619995117188	1486.234741210938	569.7730102539062	507.6569213867188	1361.960571289062	530.1097412109375	484.5819091796875	1145.53759765625	521.9905395507812	489.7618713378906	1138.974975585938	627.2767333984375	594.7477416992188	896.312255859375	521.698486328125	508.4185791015625	877.9021606445312	535.1998291015625	493.1361389160156	1029.279174804688	512.748291015625	634.44775390625	710.7891845703125	530.84033203125	539.8152465820312	788.4144897460938	520.4739379882812	607.6483764648438	800.10693359375	502.2402648925781	761.121337890625	1522.4443359375	857.1630249023438	789.6550903320312	1460.16552734375	931.2660522460938	774.5185546875	1197.21728515625	997.6775512695312	721.8190307617188	1161.865356445312	920.9803466796875	873.5076904296875	929.78515625	928.3468627929688	851.920654296875	921.528564453125	1017.266906738281	794.975341796875	1122.08837890625	1011.0732421875	896.5216674804688	742.1760864257812	922.0982055664062	914.253662109375	822.5060424804688	930.7132568359375	891.9423828125	821.6282958984375	1002.308227539062	758.3125	1715.262573242188	736.9246826171875	739.5880737304688	1675.556396484375	528.6871948242188	824.8040161132812	1683.904418945312	577.2410888671875	628.4190673828125	1706.935546875	670.191162109375	567.379150390625	942.774169921875	603.1630249023438	807.4854736328125	952.9822998046875	886.3250732421875	842.733642578125	988.1345825195312	765.5509033203125	695.3150024414062	993.4334716796875	582.9351806640625	707.0540161132812	507.7923889160156	630.374267578125	643.23095703125	637.0294799804688	607.6983642578125	623.5020141601562	36.46823501586914	755.8088989257812	636.0392456054688	269.9958801269531	694.1629638671875	843.7671508789062	32.24742126464844	697.8897705078125	801.9195556640625	40.65200424194336	739.8740234375	719.2890625	38.05783843994141	673.0139770507812	593.8129272460938	45.63116073608398	836.427001953125	906.084716796875	529.3292236328125	810.091064453125	859.696533203125	797.8312377929688	862.6715698242188	667.8631591796875	125.8824005126953	1000.064819335938	864.4746704101562	417.0774841308594	856.5355224609375	860.0515747070312	47.46211624145508	896.7235717773438	792.7249145507812	63.60105514526367	886.1270751953125	807.3553466796875	78.96859741210938	981.1940307617188	602.4555053710938	134.6087646484375	973.7926635742188	
215	2.14	663.1742553710938	1065.407348632812	869.0879516601562	560.1954345703125	1052.911499023438	743.6688842773438	601.0370483398438	1123.411499023438	799.6376953125	782.5863647460938	1306.784545898438	658.2614135742188	575.0426025390625	1266.496337890625	803.3828735351562	611.3405151367188	1531.673950195312	750.7955932617188	743.3626708984375	1432.894653320312	672.9345703125	611.2200927734375	1400.947631835938	855.4976196289062	540.9873046875	1487.143920898438	684.138916015625	583.4361572265625	1486.320190429688	566.8161010742188	510.0861206054688	1362.06982421875	528.1209716796875	486.9208984375	1145.617797851562	520.0410766601562	493.6304931640625	1138.966186523438	625.2732543945312	597.6824340820312	896.6444702148438	517.89501953125	511.6041259765625	877.9776000976562	532.485107421875	495.5372314453125	1029.333740234375	510.7461242675781	637.9595336914062	711.216064453125	526.3486938476562	542.9636840820312	788.61865234375	517.2452392578125	610.5797119140625	800.4873046875	498.1654357910156	768.6439819335938	1522.113159179688	851.4330444335938	798.4080200195312	1459.745727539062	924.9606323242188	784.8568725585938	1196.702880859375	991.1974487304688	730.90673828125	1161.324340820312	915.2326049804688	883.27001953125	929.5609130859375	920.057861328125	863.0923461914062	921.1763305664062	1009.297119140625	805.687744140625	1121.604736328125	1004.186157226562	906.5234985351562	742.006103515625	913.2420043945312	924.2715454101562	822.3702392578125	921.6574096679688	903.0646362304688	821.3536376953125	993.602294921875	763.8372192382812	1715.278564453125	731.7867431640625	742.4268188476562	1675.789184570312	523.6997680664062	828.2373657226562	1684.1328125	571.1693115234375	633.0693359375	1706.917724609375	666.6835327148438	571.3963623046875	942.4490966796875	600.2620239257812	816.9176025390625	953.1571655273438	878.6871337890625	849.6115112304688	988.3785400390625	757.2351684570312	698.9338989257812	993.1491088867188	577.2470092773438	708.0216064453125	506.8065185546875	628.2703247070312	645.2200317382812	636.4851684570312	605.522216796875	623.5289916992188	36.49433135986328	755.8607788085938	636.52880859375	269.7953186035156	693.4747314453125	843.7246704101562	32.1939811706543	697.7124633789062	801.9197387695312	40.71151351928711	739.6964111328125	719.1918334960938	37.90155029296875	672.9140625	593.8518676757812	45.86342239379883	836.4669799804688	916.9387817382812	531.0322265625	797.1188354492188	869.6936645507812	798.508544921875	853.1558837890625	696.479248046875	117.7561721801758	986.6043090820312	879.431640625	417.1575622558594	842.8262329101562	886.8250122070312	47.10487747192383	874.2574462890625	818.6372680664062	61.45865249633789	866.5867919921875	836.4171142578125	75.17746734619141	961.3795166015625	629.7186889648438	124.8609237670898	962.7203369140625	
